<?xml version="1.0" encoding="utf-8"?>
<!-- Generator: Adobe Illustrator 16.0.0, SVG Export Plug-In . SVG Version: 6.00 Build 0)  -->
<!DOCTYPE svg PUBLIC "-//W3C//DTD SVG 1.1//EN" "http://www.w3.org/Graphics/SVG/1.1/DTD/svg11.dtd">
<svg version="1.1" id="Layer_1" xmlns="http://www.w3.org/2000/svg" xmlns:xlink="http://www.w3.org/1999/xlink" x="0px" y="0px"
	 width="24px" height="24px" viewBox="0 0 24 24" enable-background="new 0 0 24 24" xml:space="preserve">
<g>
	<path fill-rule="evenodd" clip-rule="evenodd" fill="#7C4DFF" d="M12.001,23.999C18.609,23.999,24,18.609,24,12S18.609,0,12.001,0
		C5.392,0,0,5.391,0,12S5.392,23.999,12.001,23.999z"/>
	<g>
		<path fill-rule="evenodd" clip-rule="evenodd" fill="#FFFFFF" d="M18.222,12.006c0,1.47,0.005,2.94-0.002,4.409
			c-0.003,0.976-0.507,1.703-1.347,1.934c-0.199,0.056-0.414,0.076-0.622,0.076c-2.835,0.005-5.67,0.005-8.504,0.003
			c-1.151-0.001-1.951-0.75-1.959-1.899c-0.018-3.016-0.018-6.033,0-9.049c0.008-1.175,0.793-1.905,1.977-1.906
			c2.824-0.003,5.649-0.003,8.476,0c1.199,0.001,1.972,0.761,1.979,1.965C18.229,9.027,18.222,10.517,18.222,12.006z M6.843,11.981
			c0,1.47-0.001,2.94,0,4.409c0,0.622,0.289,0.914,0.904,0.914c2.834,0.001,5.669,0.001,8.504,0c0.614,0,0.91-0.297,0.911-0.911
			c0-2.931,0-5.86,0-8.791c0-0.622-0.286-0.908-0.909-0.908c-2.834,0-5.668,0-8.504,0c-0.626,0-0.906,0.28-0.906,0.906
			C6.842,9.061,6.843,10.522,6.843,11.981z"/>
		<path fill-rule="evenodd" clip-rule="evenodd" fill="#FFFFFF" d="M11.946,9.042c-1.029,0-2.061,0.003-3.09-0.001
			C8.444,9.04,8.196,8.795,8.222,8.437c0.023-0.308,0.252-0.512,0.609-0.515c0.668-0.007,1.336-0.002,2.002-0.002
			c1.385,0,2.768-0.002,4.15,0.001c0.48,0,0.758,0.317,0.64,0.717c-0.079,0.268-0.277,0.404-0.615,0.405
			C13.988,9.044,12.968,9.042,11.946,9.042z"/>
		<path fill-rule="evenodd" clip-rule="evenodd" fill="#FFFFFF" d="M13.072,12.32c0.638,0,1.276-0.001,1.914,0.001
			c0.403,0.001,0.657,0.214,0.665,0.549c0.008,0.345-0.251,0.57-0.673,0.571c-1.275,0.003-2.553,0.003-3.829,0
			c-0.414-0.001-0.653-0.206-0.659-0.55c-0.005-0.354,0.242-0.568,0.667-0.569C11.796,12.318,12.434,12.32,13.072,12.32z"/>
		<path fill-rule="evenodd" clip-rule="evenodd" fill="#FFFFFF" d="M13.062,14.552c0.648,0,1.297-0.002,1.943,0
			c0.396,0.001,0.652,0.229,0.646,0.565c-0.005,0.329-0.247,0.547-0.634,0.548c-1.297,0.005-2.592,0.005-3.888,0
			c-0.408-0.001-0.645-0.217-0.64-0.565c0.005-0.344,0.246-0.547,0.657-0.548C11.786,14.551,12.424,14.552,13.062,14.552z"/>
		<path fill-rule="evenodd" clip-rule="evenodd" fill="#FFFFFF" d="M13.064,10.148c0.677,0,1.354-0.007,2.031,0.003
			c0.334,0.006,0.56,0.238,0.557,0.533c-0.002,0.284-0.217,0.497-0.536,0.526c-0.066,0.006-0.134,0.003-0.2,0.003
			c-1.229,0-2.46,0-3.69,0c-0.057,0-0.114,0.002-0.172-0.001c-0.357-0.022-0.573-0.233-0.563-0.55
			c0.009-0.302,0.225-0.507,0.572-0.511C11.729,10.143,12.397,10.148,13.064,10.148z"/>
		<path fill-rule="evenodd" clip-rule="evenodd" fill="#FFFFFF" d="M9.544,15.104c0.006,0.317-0.242,0.579-0.545,0.576
			c-0.287-0.002-0.537-0.258-0.542-0.556c-0.007-0.31,0.249-0.574,0.55-0.572C9.304,14.555,9.54,14.796,9.544,15.104z"/>
		<path fill-rule="evenodd" clip-rule="evenodd" fill="#FFFFFF" d="M9.544,12.906C9.54,13.214,9.306,13.457,9.01,13.46
			c-0.302,0.004-0.558-0.258-0.553-0.569c0.004-0.297,0.252-0.554,0.54-0.559C9.3,12.328,9.548,12.589,9.544,12.906z"/>
		<path fill-rule="evenodd" clip-rule="evenodd" fill="#FFFFFF" d="M9.544,10.696c-0.006,0.309-0.24,0.542-0.541,0.542
			c-0.309,0-0.555-0.257-0.546-0.57c0.009-0.316,0.263-0.555,0.575-0.541C9.33,10.14,9.55,10.385,9.544,10.696z"/>
	</g>
</g>
</svg>
