<?xml version="1.0" encoding="utf-8"?>
<!-- Generator: Adobe Illustrator 16.0.0, SVG Export Plug-In . SVG Version: 6.00 Build 0)  -->
<!DOCTYPE svg PUBLIC "-//W3C//DTD SVG 1.1//EN" "http://www.w3.org/Graphics/SVG/1.1/DTD/svg11.dtd">
<svg version="1.1" id="Layer_1" xmlns="http://www.w3.org/2000/svg" xmlns:xlink="http://www.w3.org/1999/xlink" x="0px" y="0px"
	 width="24px" height="24px" viewBox="0 0 24 24" enable-background="new 0 0 24 24" xml:space="preserve">
<g>
	<path fill-rule="evenodd" clip-rule="evenodd" fill="#E53935" d="M11.999,23.999C18.608,23.999,24,18.609,24,12S18.608,0,11.999,0
		C5.392,0,0,5.391,0,12S5.392,23.999,11.999,23.999z"/>
	<g>
		<g id="do-not-disturb_1_">
			<path fill="#FFFFFF" d="M12,5.571c-3.536,0-6.429,2.893-6.429,6.429S8.464,18.429,12,18.429s6.429-2.893,6.429-6.429
				S15.536,5.571,12,5.571z M6.856,12c0-2.828,2.314-5.143,5.144-5.143c1.156,0,2.25,0.386,3.149,1.093l-7.199,7.2
				C7.243,14.25,6.856,13.157,6.856,12z M12,17.143c-1.157,0-2.25-0.386-3.15-1.093l7.201-7.2c0.706,0.9,1.092,1.992,1.092,3.15
				C17.143,14.829,14.829,17.143,12,17.143z"/>
		</g>
	</g>
</g>
</svg>
