<?xml version="1.0" encoding="utf-8"?>
<!-- Generator: Adobe Illustrator 17.0.0, SVG Export Plug-In . SVG Version: 6.00 Build 0)  -->
<!DOCTYPE svg PUBLIC "-//W3C//DTD SVG 1.1//EN" "http://www.w3.org/Graphics/SVG/1.1/DTD/svg11.dtd">
<svg version="1.1" id="Layer_1" xmlns="http://www.w3.org/2000/svg" xmlns:xlink="http://www.w3.org/1999/xlink" x="0px" y="0px"
	 width="7.845px" height="7.071px" viewBox="0 0 7.845 7.071" enable-background="new 0 0 7.845 7.071" xml:space="preserve">
<g>
	<path fill="#010202" d="M6.433,4.503C6.037,5.746,4.872,6.65,3.5,6.65c-1.698,0-3.079-1.381-3.079-3.077
		c0-1.698,1.381-3.078,3.079-3.078c0.103,0,0.207,0.005,0.308,0.015c0.109-0.136,0.234-0.259,0.368-0.369
		C3.958,0.098,3.731,0.073,3.5,0.073c-1.933,0-3.5,1.566-3.5,3.5c0,1.932,1.567,3.498,3.5,3.498c1.678,0,3.08-1.184,3.418-2.762
		C6.766,4.391,6.603,4.454,6.433,4.503z"/>
	<g>
		<g id="access-time_32_">
			<g opacity="0.9">
				<path fill="#010202" d="M5.757,0C4.608,0,3.668,0.939,3.668,2.088c0,1.148,0.941,2.088,2.089,2.088
					c1.148,0,2.088-0.94,2.088-2.088C7.845,0.939,6.904,0,5.757,0z M5.757,3.759c-0.919,0-1.671-0.752-1.671-1.671
					c0-0.919,0.752-1.671,1.671-1.671c0.919,0,1.67,0.752,1.67,1.671C7.427,3.007,6.676,3.759,5.757,3.759z"/>
			</g>
			<polygon opacity="0.9" fill="#010202" points="5.861,1.044 5.548,1.044 5.548,2.297 6.635,2.965 6.801,2.693 5.861,2.13 			"/>
		</g>
	</g>
</g>
</svg>
