<?xml version="1.0" encoding="utf-8"?>
<!-- Generator: Adobe Illustrator 17.0.0, SVG Export Plug-In . SVG Version: 6.00 Build 0)  -->
<!DOCTYPE svg PUBLIC "-//W3C//DTD SVG 1.1//EN" "http://www.w3.org/Graphics/SVG/1.1/DTD/svg11.dtd">
<svg version="1.1" id="Layer_1" xmlns="http://www.w3.org/2000/svg" xmlns:xlink="http://www.w3.org/1999/xlink" x="0px" y="0px"
	 width="9.727px" height="13.6px" viewBox="0 0 9.727 13.6" enable-background="new 0 0 9.727 13.6" xml:space="preserve">
<path fill="#BDBCBC" d="M2.532,13.587v-2.536H0.079v2.536H2.532z M2.545,9.916V7.339H0.079v2.577H2.545z M6.167,13.587v-2.536H3.683
	v2.536H6.167z M6.141,9.951V7.339H3.683v2.612H6.141z M0.079,6.198h2.47V3.649h-2.47V6.198z M6.141,6.198V3.636H3.683v2.562H6.141z
	 M9.727,13.6v-2.549H7.242V13.6H9.727z M9.714,9.951V7.339H7.263v2.612H9.714z M9.714,6.198V3.649h-2.46v2.548H9.714z M0,2.561h2.47
	V0.012H0V2.561z M6.181,2.561V0H3.723v2.561H6.181z M9.792,2.561V0.012H7.334v2.549H9.792z"/>
</svg>
