<?xml version="1.0" encoding="utf-8"?>
<!-- Generator: Adobe Illustrator 16.0.0, SVG Export Plug-In . SVG Version: 6.00 Build 0)  -->
<!DOCTYPE svg PUBLIC "-//W3C//DTD SVG 1.1//EN" "http://www.w3.org/Graphics/SVG/1.1/DTD/svg11.dtd">
<svg version="1.1" id="Layer_1" xmlns="http://www.w3.org/2000/svg" xmlns:xlink="http://www.w3.org/1999/xlink" x="0px" y="0px"
	 width="24px" height="24px" viewBox="0 0 24 24" enable-background="new 0 0 24 24" xml:space="preserve">
<g>
	<path fill-rule="evenodd" clip-rule="evenodd" fill="#4CAF50" d="M12,23.999c6.61,0,12-5.39,12-11.999c0-6.61-5.391-12-12-12
		C5.39,0,0,5.391,0,12C0,18.609,5.39,23.999,12,23.999z"/>
	<g>
		<path fill="#FFFFFF" d="M12,17.822l-0.241-0.241c-0.724-0.729-1.408-1.387-2.037-1.992c-2.499-2.4-4.151-3.989-4.151-6.028
			c0-1.93,1.454-3.383,3.384-3.383c1.208,0,2.394,0.661,3.045,1.638c0.65-0.977,1.837-1.638,3.045-1.638
			c1.929,0,3.384,1.454,3.384,3.383c0,2.04-1.65,3.628-4.151,6.028c-0.629,0.605-1.313,1.263-2.037,1.992L12,17.822z"/>
	</g>
</g>
</svg>
