<?xml version="1.0" encoding="utf-8" ?>
<!-- Generator: Adobe Illustrator 19.0.0, SVG Export Plug-In . SVG Version: 6.00 Build 0)  -->
<svg version="1.1" id="Layer_1" xmlns="http://www.w3.org/2000/svg" xmlns:xlink="http://www.w3.org/1999/xlink" x="0px" y="0px"
     viewBox="0 0 31.4 31.4" style="enable-background:new 0 0 31.4 31.4;" xml:space="preserve">
<style type="text/css">
	.st1{fill-rule:evenodd;clip-rule:evenodd;fill:#FFFFFF;}
</style>
<g id="XMLID_3_">
<path id="XMLID_58_" d="M15.7,30.9c8.4,0,15.2-6.8,15.2-15.2S24.1,0.5,15.7,0.5C7.3,0.5,0.5,7.3,0.5,15.7
		S7.3,30.9,15.7,30.9z" />
<path id="XMLID_4_" class="st1" d="M15.7,7.9c-1.7,0-3.1,1.1-3.1,3.4c0,2.4,1.5,4.3,3.1,4.3c1.7,0,3.1-1.9,3.1-4.3
		C18.8,9,17.4,7.9,15.7,7.9L15.7,7.9z M12,17.2c1.2-0.4,2.5-0.6,3.7-0.6c1.2,0,2.5,0.2,3.7,0.6c1,0.4,1.9,0.9,2.5,1.8
		c0.1,0.2,0.2,0.3,0.2,0.6v2.9c0,0.5-0.4,1-1,1h-5.3h-5.3c-0.5,0-1-0.4-1-1v-2.9c0-0.2,0.1-0.4,0.2-0.5C10.1,18.2,11,17.6,12,17.2z" />
</g>
</svg>
