<?xml version="1.0" encoding="utf-8" ?>
<!-- Generator: Adobe Illustrator 19.0.0, SVG Export Plug-In . SVG Version: 6.00 Build 0)  -->
<svg version="1.1" id="Layer_1" xmlns="http://www.w3.org/2000/svg" xmlns:xlink="http://www.w3.org/1999/xlink" x="0px" y="0px"
     viewBox="0 0 31.4 31.4" style="enable-background:new 0 0 31.4 31.4;" xml:space="preserve">
<style type="text/css">
	.st1{fill:#FFFFFF;}
</style>
<g id="XMLID_3_">
<path id="XMLID_64_" d="M15.7,30.9c8.4,0,15.2-6.8,15.2-15.2c0-8.4-6.8-15.2-15.2-15.2C7.3,0.5,0.5,7.3,0.5,15.7
		C0.5,24.1,7.3,30.9,15.7,30.9z" />
<g id="XMLID_4_">
<path id="XMLID_63_" class="st1" d="M16,9.2c1.5,0,3,0.5,4.1,1.4c0.2-0.2,0.5-0.3,0.8-0.4c-1.3-1.1-3-1.8-4.9-1.8
			c-0.6,0-1.2,0.1-1.7,0.2c0.2,0.2,0.3,0.5,0.5,0.7C15.1,9.3,15.5,9.2,16,9.2z" />
<g id="XMLID_60_">
<path id="XMLID_62_" class="st1" d="M10.7,20.1c-0.9-1.1-1.5-2.6-1.5-4.2c0-0.4,0-0.8,0.1-1.2c-0.3-0.1-0.5-0.3-0.7-0.5
				c-0.1,0.5-0.2,1.1-0.2,1.7c0,1.9,0.7,3.7,1.9,5C10.4,20.6,10.5,20.4,10.7,20.1z" />
<path id="XMLID_61_" class="st1" d="M22.4,17.9c-0.6,2.1-2.3,3.8-4.4,4.4c0,0.3-0.1,0.6-0.1,0.9c2.7-0.7,4.8-2.8,5.4-5.5
				C23,17.8,22.7,17.9,22.4,17.9z" />
		</g>
<g id="XMLID_5_">
<path id="XMLID_59_" class="st1" d="M14.1,19.1L14.1,19.1L14.1,19.1c-1.8,0-3.3,1.4-3.3,3.2c0,1.7,1.4,3.1,3.1,3.1
				c1.8,0,3.3-1.4,3.3-3.2c0-0.8-0.3-1.6-0.9-2.2C15.7,19.4,15,19.1,14.1,19.1z" />
<path id="XMLID_58_" class="st1" d="M22.3,10.7L22.3,10.7c-1.8,0-3.2,1.5-3.2,3.2c0,1.7,1.4,3.1,3.1,3.1c1.8,0,3.2-1.5,3.2-3.2
				C25.4,12.1,24.1,10.7,22.3,10.7z" />
<path id="XMLID_57_" class="st1" d="M11.2,14.3c0.8,0,1.6-0.4,2.2-1c0.6-0.6,0.9-1.4,0.9-2.3C14.2,9.3,12.9,8,11.2,8l-0.1,0
				C10.2,8,9.4,8.4,8.8,9C8.2,9.7,7.9,10.5,8,11.4C8,13,9.4,14.3,11.2,14.3L11.2,14.3z" />
		</g>
	</g>
</g>
</svg>
