<?xml version="1.0" encoding="utf-8" ?>
<!-- Generator: Adobe Illustrator 19.0.0, SVG Export Plug-In . SVG Version: 6.00 Build 0)  -->
<svg version="1.1" id="Layer_1" xmlns="http://www.w3.org/2000/svg" xmlns:xlink="http://www.w3.org/1999/xlink" x="0px" y="0px"
     viewBox="0 0 31.4 31.4" xml:space="preserve">
<style type="text/css">
	.st0{fill-rule:evenodd;clip-rule:evenodd;}
	.st1{fill-rule:evenodd;clip-rule:evenodd;fill:#FFFFFF;}
</style>
<g id="XMLID_2_">
<path id="XMLID_5_" d="M15.7,30.9c8.4,0,15.2-6.8,15.2-15.2c0-8.4-6.8-15.2-15.2-15.2C7.3,0.5,0.5,7.3,0.5,15.7
		C0.5,24.1,7.3,30.9,15.7,30.9z" />
<path id="XMLID_3_" class="st1" d="M15.7,9.8l-6.1,6.1v4.8c0,0.5,0.4,1,1,1h3.6v-4.1c0-0.3,0.2-0.5,0.5-0.5h1.9
		c0.3,0,0.5,0.2,0.5,0.5v4.1h3.6c0.5,0,1-0.4,1-1v-4.8L15.7,9.8L15.7,9.8z" />
</g>
</svg>
