<?xml version="1.0" encoding="utf-8" ?>
<!-- Generator: Adobe Illustrator 19.0.0, SVG Export Plug-In . SVG Version: 6.00 Build 0)  -->
<svg version="1.1" id="Layer_1" xmlns="http://www.w3.org/2000/svg" xmlns:xlink="http://www.w3.org/1999/xlink" x="0px" y="0px"
     viewBox="0 0 31.4 31.4" style="enable-background:new 0 0 31.4 31.4;" xml:space="preserve">
<style type="text/css">
	.st1{fill-rule:evenodd;clip-rule:evenodd;fill:#FFFFFF;}
</style>
<g id="XMLID_3_">
<path id="XMLID_58_" d="M15.7,30.9c8.4,0,15.2-6.8,15.2-15.2c0-8.4-6.8-15.2-15.2-15.2C7.3,0.5,0.5,7.3,0.5,15.7
		C0.5,24.1,7.3,30.9,15.7,30.9z" />
<path id="XMLID_4_" class="st1" d="M14,9.7c-0.5,0.1-0.9,0.3-1.3,0.6l-1.1-0.8c-0.2-0.2-0.5-0.1-0.6,0l-0.7,0.7l-0.7,0.7
		c-0.2,0.2-0.2,0.5,0,0.6l0.8,1.1c-0.2,0.4-0.4,0.9-0.6,1.3l-1.4,0.2c-0.2,0-0.4,0.2-0.4,0.5v1v1c0,0.3,0.2,0.5,0.4,0.5l1.4,0.2
		c0.1,0.5,0.3,0.9,0.6,1.3l-0.8,1.1c-0.2,0.2-0.1,0.5,0,0.6l0.7,0.7l0.7,0.7c0.2,0.2,0.5,0.2,0.6,0l1.1-0.8c0.4,0.2,0.9,0.4,1.3,0.6
		l0.2,1.4c0,0.2,0.2,0.4,0.5,0.4h1h1c0.3,0,0.5-0.2,0.5-0.4l0.2-1.4c0.5-0.1,0.9-0.3,1.3-0.6l1.1,0.8c0.2,0.2,0.5,0.1,0.6,0l0.7-0.7
		l0.7-0.7c0.2-0.2,0.2-0.5,0-0.6l-0.8-1.1c0.2-0.4,0.4-0.9,0.6-1.3l1.4-0.2c0.2,0,0.4-0.2,0.4-0.5v-1v-1c0-0.3-0.2-0.5-0.4-0.5
		L21.6,14c-0.1-0.5-0.3-0.9-0.6-1.3l0.8-1.1c0.2-0.2,0.1-0.5,0-0.6l-0.7-0.7l-0.7-0.7c-0.2-0.2-0.5-0.2-0.6,0l-1.1,0.8
		c-0.4-0.2-0.9-0.4-1.3-0.6l-0.2-1.4c0-0.2-0.2-0.4-0.5-0.4h-1h-1c-0.3,0-0.5,0.2-0.5,0.4L14,9.7L14,9.7z M15.7,12.8
		c1.6,0,2.9,1.3,2.9,2.9c0,1.6-1.3,2.9-2.9,2.9c-1.6,0-2.9-1.3-2.9-2.9C12.8,14.1,14.1,12.8,15.7,12.8z" />
</g>
</svg>
