<?xml version="1.0" encoding="utf-8" ?>
<!-- Generator: Adobe Illustrator 19.0.0, SVG Export Plug-In . SVG Version: 6.00 Build 0)  -->
<svg version="1.1" id="Layer_1" xmlns="http://www.w3.org/2000/svg" xmlns:xlink="http://www.w3.org/1999/xlink" x="0px" y="0px"
     viewBox="0 0 16 16" style="enable-background:new 0 0 16 16;" xml:space="preserve">
<style type="text/css">

</style>
<g id="XMLID_2_">
<path id="XMLID_3_"  d="M15.7,3.5l-3.2-3.2c-0.4-0.4-0.9-0.4-1.3,0L1.5,10c-0.2,0.2-0.4,0.6-0.5,0.9L0,15
		c-0.1,0.3,0,0.6,0.2,0.7S0.7,16,1,16l4.2-1c0.3-0.1,0.7-0.3,0.9-0.5l9.7-9.7C16.1,4.4,16.1,3.9,15.7,3.5z M2,14.6L1.4,14l0.5-2.3
		l2.4,2.4L2,14.6z M2.4,10.6l7.7-7.7L11.2,4l-7.7,7.7L2.4,10.6L2.4,10.6z M4.3,12.5L12,4.8l1.1,1.1l-7.7,7.7L4.3,12.5L4.3,12.5z
		 M14.8,4.2l-1,1l-3-3l1-1L14.8,4.2z" />
</g>
</svg>
