<?xml version="1.0" encoding="utf-8"?>
<!-- Generator: Adobe Illustrator 17.0.0, SVG Export Plug-In . SVG Version: 6.00 Build 0)  -->
<!DOCTYPE svg PUBLIC "-//W3C//DTD SVG 1.1//EN" "http://www.w3.org/Graphics/SVG/1.1/DTD/svg11.dtd">
<svg version="1.1" id="Layer_1" xmlns="http://www.w3.org/2000/svg" xmlns:xlink="http://www.w3.org/1999/xlink" x="0px" y="0px"
	 width="14.189px" height="20px" viewBox="0 0 14.189 20" enable-background="new 0 0 14.189 20" xml:space="preserve">
<g>
	<path fill="#666666" d="M13.267,0H8.646C8.137,0,7.724,0.414,7.724,0.925v13.833c0,0.306,0.116,0.716,0.277,0.975l2.292,3.694
		c0.154,0.246,0.396,0.39,0.664,0.39s0.511-0.144,0.664-0.39l2.291-3.694c0.161-0.259,0.277-0.669,0.277-0.975V0.925
		C14.19,0.414,13.778,0,13.267,0z M11.366,17.739H10.55L9.274,15.68h3.369L11.366,17.739z M8.83,14.573V3.613h1.572v10.96H8.83
		L8.83,14.573z M11.511,14.573V3.613h1.572v10.96H11.511L11.511,14.573z M13.083,1.108v1.397H8.83V1.108H13.083z"/>
	<path fill="#666666" d="M8.594,18.892H0.555C0.247,18.892,0,19.14,0,19.445C0,19.751,0.247,20,0.555,20h8.039
		c0.307,0,0.556-0.249,0.556-0.556C9.15,19.14,8.901,18.892,8.594,18.892z"/>
</g>
<rect x="430.938" y="310.313" fill="none" stroke="#666666" stroke-miterlimit="10" width="24" height="24"/>
</svg>
