<?xml version="1.0" encoding="utf-8"?>
<!-- Generator: Adobe Illustrator 17.0.0, SVG Export Plug-In . SVG Version: 6.00 Build 0)  -->
<!DOCTYPE svg PUBLIC "-//W3C//DTD SVG 1.1//EN" "http://www.w3.org/Graphics/SVG/1.1/DTD/svg11.dtd">
<svg version="1.1" id="Layer_1" xmlns="http://www.w3.org/2000/svg" xmlns:xlink="http://www.w3.org/1999/xlink" x="0px" y="0px"
	 width="19.855px" height="20px" viewBox="0 0 19.855 20" enable-background="new 0 0 19.855 20" xml:space="preserve">
<path d="M9.927,0c-0.855,0-1.55,0.694-1.55,1.55v7.748c0,0.855,0.694,1.55,1.55,1.55c0.855,0,1.55-0.694,1.55-1.55
	V1.55C11.477,0.694,10.783,0,9.927,0z M4.383,2.01C4.159,2.038,3.949,2.131,3.777,2.276C1.474,4.093,0,6.917,0,10.073
	C0,15.542,4.458,20,9.927,20s9.927-4.458,9.927-9.927c0-3.156-1.473-5.979-3.777-7.797c-0.501-0.401-1.233-0.32-1.634,0.182
	s-0.32,1.233,0.182,1.634c1.767,1.393,2.906,3.55,2.906,5.981c0,4.213-3.389,7.603-7.603,7.603s-7.603-3.39-7.603-7.603
	c0-2.431,1.139-4.587,2.906-5.981c0.513-0.385,0.617-1.114,0.232-1.627C5.211,2.13,4.798,1.956,4.383,2.01z"/>
</svg>
