<?xml version="1.0" encoding="utf-8" ?>
<!-- Generator: Adobe Illustrator 17.0.0, SVG Export Plug-In . SVG Version: 6.00 Build 0)  -->
<!DOCTYPE svg PUBLIC "-//W3C//DTD SVG 1.1//EN" "http://www.w3.org/Graphics/SVG/1.1/DTD/svg11.dtd">
<svg version="1.1" id="Layer_1" xmlns="http://www.w3.org/2000/svg" xmlns:xlink="http://www.w3.org/1999/xlink" x="0px" y="0px"
     width="10.355px" height="20px" viewBox="0 0 10.355 20" enable-background="new 0 0 10.355 20" xml:space="preserve">
<g>
<path fill="#558C89" d="M9.944,1.25H9.048V0.411C9.048,0.184,8.864,0,8.637,0H1.718C1.491,0,1.307,0.184,1.307,0.411V1.25H0.411
		C0.184,1.25,0,1.434,0,1.661v17.928C0,19.816,0.184,20,0.411,20h3.714H6.23h3.714c0.227,0,0.411-0.184,0.411-0.411V1.661
		C10.355,1.434,10.171,1.25,9.944,1.25z M5.819,19.178H4.536V16.35h1.283V19.178z M9.533,19.178H6.641v-3.239
		c0-0.227-0.184-0.411-0.411-0.411H4.125c-0.227,0-0.411,0.184-0.411,0.411v3.239H0.822V2.072h8.711V19.178z M8.226,0.822V1.25
		H2.129V0.822H8.226z" />
<path fill="#558C89" d="M2.729,4.001c-0.227,0-0.411,0.184-0.411,0.411v0.59c0,0.227,0.184,0.411,0.411,0.411
		S3.14,5.229,3.14,5.002v-0.59C3.14,4.185,2.956,4.001,2.729,4.001z" />
<path fill="#558C89" d="M4.361,4.001c-0.227,0-0.411,0.184-0.411,0.411v0.59c0,0.227,0.184,0.411,0.411,0.411
		s0.411-0.184,0.411-0.411v-0.59C4.772,4.185,4.588,4.001,4.361,4.001z" />
<path fill="#558C89" d="M5.994,4.001c-0.227,0-0.411,0.184-0.411,0.411v0.59c0,0.227,0.184,0.411,0.411,0.411
		c0.227,0,0.411-0.184,0.411-0.411v-0.59C6.405,4.185,6.221,4.001,5.994,4.001z" />
<path fill="#558C89" d="M7.626,4.001c-0.227,0-0.411,0.184-0.411,0.411v0.59c0,0.227,0.184,0.411,0.411,0.411
		s0.411-0.184,0.411-0.411v-0.59C8.037,4.185,7.853,4.001,7.626,4.001z" />
<path fill="#558C89" d="M2.729,6.032c-0.227,0-0.411,0.184-0.411,0.411v0.59c0,0.227,0.184,0.411,0.411,0.411S3.14,7.26,3.14,7.033
		v-0.59C3.14,6.216,2.956,6.032,2.729,6.032z" />
<path fill="#558C89" d="M4.361,6.032c-0.227,0-0.411,0.184-0.411,0.411v0.59c0,0.227,0.184,0.411,0.411,0.411
		S4.772,7.26,4.772,7.033v-0.59C4.772,6.216,4.588,6.032,4.361,6.032z" />
<path fill="#558C89" d="M5.994,6.032c-0.227,0-0.411,0.184-0.411,0.411v0.59c0,0.227,0.184,0.411,0.411,0.411
		c0.227,0,0.411-0.184,0.411-0.411v-0.59C6.405,6.216,6.221,6.032,5.994,6.032z" />
<path fill="#558C89" d="M7.626,6.032c-0.227,0-0.411,0.184-0.411,0.411v0.59c0,0.227,0.184,0.411,0.411,0.411
		S8.037,7.26,8.037,7.033v-0.59C8.037,6.216,7.853,6.032,7.626,6.032z" />
<path fill="#558C89" d="M2.729,8.062c-0.227,0-0.411,0.184-0.411,0.411v0.59c0,0.227,0.184,0.411,0.411,0.411S3.14,9.29,3.14,9.063
		v-0.59C3.14,8.246,2.956,8.062,2.729,8.062z" />
<path fill="#558C89" d="M4.361,8.062c-0.227,0-0.411,0.184-0.411,0.411v0.59c0,0.227,0.184,0.411,0.411,0.411
		S4.772,9.29,4.772,9.063v-0.59C4.772,8.246,4.588,8.062,4.361,8.062z" />
<path fill="#558C89" d="M5.994,8.062c-0.227,0-0.411,0.184-0.411,0.411v0.59c0,0.227,0.184,0.411,0.411,0.411
		c0.227,0,0.411-0.184,0.411-0.411v-0.59C6.405,8.246,6.221,8.062,5.994,8.062z" />
<path fill="#558C89" d="M7.626,8.062c-0.227,0-0.411,0.184-0.411,0.411v0.59c0,0.227,0.184,0.411,0.411,0.411
		S8.037,9.29,8.037,9.063v-0.59C8.037,8.246,7.853,8.062,7.626,8.062z" />
<path fill="#558C89" d="M2.729,10.093c-0.227,0-0.411,0.184-0.411,0.411v0.59c0,0.227,0.184,0.411,0.411,0.411
		s0.411-0.184,0.411-0.411v-0.59C3.14,10.277,2.956,10.093,2.729,10.093z" />
<path fill="#558C89" d="M4.361,10.093c-0.227,0-0.411,0.184-0.411,0.411v0.59c0,0.227,0.184,0.411,0.411,0.411
		s0.411-0.184,0.411-0.411v-0.59C4.772,10.277,4.588,10.093,4.361,10.093z" />
<path fill="#558C89" d="M5.994,10.093c-0.227,0-0.411,0.184-0.411,0.411v0.59c0,0.227,0.184,0.411,0.411,0.411
		c0.227,0,0.411-0.184,0.411-0.411v-0.59C6.405,10.277,6.221,10.093,5.994,10.093z" />
<path fill="#558C89" d="M7.626,10.093c-0.227,0-0.411,0.184-0.411,0.411v0.59c0,0.227,0.184,0.411,0.411,0.411
		s0.411-0.184,0.411-0.411v-0.59C8.037,10.277,7.853,10.093,7.626,10.093z" />
<path fill="#558C89" d="M2.729,12.124c-0.227,0-0.411,0.184-0.411,0.411v0.59c0,0.227,0.184,0.411,0.411,0.411
		s0.411-0.184,0.411-0.411v-0.59C3.14,12.308,2.956,12.124,2.729,12.124z" />
<path fill="#558C89" d="M4.361,12.124c-0.227,0-0.411,0.184-0.411,0.411v0.59c0,0.227,0.184,0.411,0.411,0.411
		s0.411-0.184,0.411-0.411v-0.59C4.772,12.308,4.588,12.124,4.361,12.124z" />
<path fill="#558C89" d="M5.994,12.124c-0.227,0-0.411,0.184-0.411,0.411v0.59c0,0.227,0.184,0.411,0.411,0.411
		c0.227,0,0.411-0.184,0.411-0.411v-0.59C6.405,12.308,6.221,12.124,5.994,12.124z" />
<path fill="#558C89" d="M7.626,12.124c-0.227,0-0.411,0.184-0.411,0.411v0.59c0,0.227,0.184,0.411,0.411,0.411
		s0.411-0.184,0.411-0.411v-0.59C8.037,12.308,7.853,12.124,7.626,12.124z" />
</g>
</svg>
