<?xml version="1.0" encoding="utf-8"?>
<!-- Generator: Adobe Illustrator 17.0.0, SVG Export Plug-In . SVG Version: 6.00 Build 0)  -->
<!DOCTYPE svg PUBLIC "-//W3C//DTD SVG 1.1//EN" "http://www.w3.org/Graphics/SVG/1.1/DTD/svg11.dtd">
<svg version="1.1" id="Layer_1" xmlns="http://www.w3.org/2000/svg" xmlns:xlink="http://www.w3.org/1999/xlink" x="0px" y="0px"
	 width="11.995px" height="19.2px" viewBox="0 0 11.995 19.2" enable-background="new 0 0 11.995 19.2" xml:space="preserve">
<path fill="#54C7FC" d="M11.995,9.536c-0.276,0.385-0.483,0.771-0.778,1.068c-2.543,2.565-5.103,5.113-7.655,7.668
	c-0.907,0.908-1.902,1.39-2.958,0.305c-1.042-1.069-0.555-2.105,0.316-3.002c1.589-1.636,3.175-3.279,4.838-4.838
	c0.907-0.85,0.92-1.459,0.005-2.313C4.098,6.868,2.527,5.211,0.912,3.599c-0.916-0.914-1.341-1.935-0.32-2.987
	c1.056-1.089,2.073-0.563,2.967,0.325c2.562,2.546,5.115,5.101,7.664,7.659C11.485,8.859,11.698,9.171,11.995,9.536z"/>
</svg>
