<?xml version="1.0" encoding="utf-8"?>
<!-- Generator: Adobe Illustrator 16.0.0, SVG Export Plug-In . SVG Version: 6.00 Build 0)  -->
<!DOCTYPE svg PUBLIC "-//W3C//DTD SVG 1.1//EN" "http://www.w3.org/Graphics/SVG/1.1/DTD/svg11.dtd">
<svg version="1.1" id="Layer_1" xmlns="http://www.w3.org/2000/svg" xmlns:xlink="http://www.w3.org/1999/xlink" x="0px" y="0px"
	 width="24px" height="24px" viewBox="0 0 24 24" enable-background="new 0 0 24 24" xml:space="preserve">
<g>
	<path fill-rule="evenodd" clip-rule="evenodd" fill="#FFFFFF" d="M11.738,7.008l-4.775,4.774v3.819
		c-0.005,0.42,0.349,0.764,0.764,0.764h2.865v-3.246c0-0.21,0.171-0.382,0.381-0.382h1.529c0.209,0,0.381,0.172,0.381,0.382v3.246
		h2.864c0.42,0.005,0.766-0.348,0.766-0.763v-3.82L11.738,7.008L11.738,7.008z"/>
	<path fill-rule="evenodd" clip-rule="evenodd" fill="#1E88E5" d="M12,23.999c6.609,0,12-5.39,12-11.999c0-6.61-5.391-12-12-12
		C5.39,0,0,5.391,0,12C0,18.609,5.39,23.999,12,23.999z"/>
	<g>
		<g>
			<path fill-rule="evenodd" clip-rule="evenodd" fill="#FFFFFF" d="M17.162,18.429c-3.475,0-6.867,0-10.303,0
				c-0.007-0.188-0.021-0.354-0.021-0.521c-0.001-3.379-0.003-6.757,0-10.136c0-1.441,0.751-2.193,2.201-2.196
				c1.982-0.005,3.964-0.006,5.946,0C16.4,5.58,17.161,6.34,17.162,7.742c0.003,3.397,0,6.792,0,10.188
				C17.162,18.081,17.162,18.233,17.162,18.429z M15.852,17.178c0.026-0.106,0.048-0.155,0.048-0.204
				c0.004-3.119,0.01-6.237,0.001-9.356c-0.001-0.565-0.259-0.785-0.85-0.786c-2.016-0.003-4.032-0.002-6.048-0.001
				C8.306,6.832,8.095,7.045,8.095,7.768c-0.004,2.981-0.001,5.962,0,8.944c0,0.149,0.021,0.3,0.031,0.45c0.45,0,0.854,0,1.31,0
				c0-0.421,0-0.809,0-1.195c0.661,0,1.267,0,1.936,0c0,0.433,0,0.817,0,1.198c0.453,0,0.842,0,1.289,0c0-0.415,0-0.803,0-1.203
				c0.668,0,1.275,0,1.937,0c0,0.429,0,0.815,0,1.216C15.043,17.178,15.436,17.178,15.852,17.178z"/>
			<path fill-rule="evenodd" clip-rule="evenodd" fill="#FFFFFF" d="M14.532,14.577c-0.628,0-1.21,0-1.836,0c0-0.394,0-0.775,0-1.2
				c0.607,0,1.211,0,1.836,0C14.532,13.781,14.532,14.178,14.532,14.577z"/>
			<path fill-rule="evenodd" clip-rule="evenodd" fill="#FFFFFF" d="M12.694,8.187c0.662,0,1.242,0,1.853,0c0,0.41,0,0.793,0,1.204
				c-0.616,0-1.211,0-1.853,0C12.694,8.996,12.694,8.601,12.694,8.187z"/>
			<path fill-rule="evenodd" clip-rule="evenodd" fill="#FFFFFF" d="M11.33,10.788c0,0.412,0,0.77,0,1.171c-0.613,0-1.219,0-1.868,0
				c0-0.363,0-0.747,0-1.171C10.066,10.788,10.672,10.788,11.33,10.788z"/>
			<path fill-rule="evenodd" clip-rule="evenodd" fill="#FFFFFF" d="M14.563,10.789c0,0.41,0,0.769,0,1.171
				c-0.609,0-1.218,0-1.869,0c0-0.365,0-0.747,0-1.171C13.305,10.789,13.911,10.789,14.563,10.789z"/>
			<path fill-rule="evenodd" clip-rule="evenodd" fill="#FFFFFF" d="M11.331,8.2c0,0.417,0,0.774,0,1.174c-0.618,0-1.225,0-1.87,0
				c0-0.367,0-0.751,0-1.174C10.069,8.2,10.675,8.2,11.331,8.2z"/>
			<path fill-rule="evenodd" clip-rule="evenodd" fill="#FFFFFF" d="M11.319,13.376c0,0.421,0,0.791,0,1.187
				c-0.624,0-1.219,0-1.855,0c0-0.378,0-0.761,0-1.187C10.063,13.376,10.669,13.376,11.319,13.376z"/>
		</g>
	</g>
</g>
</svg>
