<?xml version="1.0" encoding="utf-8"?>
<!-- Generator: Adobe Illustrator 17.0.0, SVG Export Plug-In . SVG Version: 6.00 Build 0)  -->
<!DOCTYPE svg PUBLIC "-//W3C//DTD SVG 1.1//EN" "http://www.w3.org/Graphics/SVG/1.1/DTD/svg11.dtd">
<svg version="1.1" id="Layer_1" xmlns="http://www.w3.org/2000/svg" xmlns:xlink="http://www.w3.org/1999/xlink" x="0px" y="0px"
	 width="20.956px" height="20.956px" viewBox="0 0 20.956 20.956" enable-background="new 0 0 20.956 20.956" xml:space="preserve">
<g>
	<g>
		<g>
			<g>
				<path d="M7.535,12.691H4.902c-0.134,0-0.243,0.109-0.243,0.243v2.633c0,0.134,0.109,0.243,0.243,0.243h2.633
					c0.134,0,0.243-0.109,0.243-0.243v-2.633C7.778,12.8,7.669,12.691,7.535,12.691z"/>
				<path  d="M11.753,12.691H9.12c-0.134,0-0.243,0.109-0.243,0.243v2.633c0,0.134,0.109,0.243,0.243,0.243h2.633
					c0.134,0,0.243-0.109,0.243-0.243v-2.633C11.996,12.8,11.887,12.691,11.753,12.691z"/>
				<path  d="M16.054,12.691h-2.633c-0.134,0-0.243,0.109-0.243,0.243v2.633c0,0.134,0.109,0.243,0.243,0.243h2.633
					c0.134,0,0.243-0.109,0.243-0.243v-2.633C16.297,12.8,16.188,12.691,16.054,12.691z"/>
				<path d="M9.161,8.264h2.633c0.134,0,0.243-0.109,0.243-0.243V5.388c0-0.134-0.109-0.243-0.243-0.243H9.161
					c-0.134,0-0.243,0.109-0.243,0.243v2.633C8.918,8.156,9.027,8.264,9.161,8.264z"/>
				<path d="M5.814,11.85h0.498c0.134,0,0.243-0.109,0.243-0.243v-1.025h3.43v1.028c0,0.134,0.109,0.243,0.243,0.243
					h0.498c0.134,0,0.243-0.109,0.243-0.243v-1.028h3.43v1.026c0,0.134,0.109,0.243,0.243,0.243h0.498
					c0.134,0,0.243-0.109,0.243-0.243V9.84c0-0.134-0.109-0.243-0.243-0.243H10.97V9.26c0-0.134-0.109-0.243-0.243-0.243h-0.498
					c-0.134,0-0.243,0.109-0.243,0.243v0.337H5.814c-0.134,0-0.243,0.109-0.243,0.243v1.766C5.571,11.741,5.68,11.85,5.814,11.85z"
					/>
			</g>
		</g>
	</g>
	<g>
		<path d="M20.956,20.956H0V0h20.956V20.956z M0.695,0.695v19.566h19.566V0.695"/>
	</g>
</g>
</svg>
