<?xml version="1.0" encoding="utf-8"?>
<!-- Generator: Adobe Illustrator 17.0.0, SVG Export Plug-In . SVG Version: 6.00 Build 0)  -->
<!DOCTYPE svg PUBLIC "-//W3C//DTD SVG 1.1//EN" "http://www.w3.org/Graphics/SVG/1.1/DTD/svg11.dtd">
<svg version="1.1" id="Layer_1" xmlns="http://www.w3.org/2000/svg" xmlns:xlink="http://www.w3.org/1999/xlink" x="0px" y="0px"
	 width="15.998px" height="18.401px" viewBox="0 0 15.998 18.401" enable-background="new 0 0 15.998 18.401" xml:space="preserve">
<g>
	<g id="Layer_5_5_">
		<g>
			<path d="M15.998,1.09V0.934C15.998,0.42,15.578,0,15.064,0H0.934C0.42,0,0,0.42,0,0.934V1.09
				c0,0.514,0.42,0.934,0.934,0.934h0.361c0.185,0,0.171,0.173,0.171,0.262c0,1.038,0.425,2.237,0.752,3.004
				C2.872,6.826,4.36,8.087,5.583,8.978c0.223,0.163,0.17,0.313,0.04,0.417c-1.185,0.95-2.744,2.163-3.405,3.717
				c-0.321,0.754-0.738,1.928-0.751,2.955c-0.001,0.105,0.041,0.311-0.211,0.311H0.934C0.42,16.377,0,16.798,0,17.311v0.156
				c0,0.514,0.42,0.934,0.934,0.934h14.13c0.514,0,0.934-0.42,0.934-0.934v-0.156c0-0.514-0.42-0.934-0.934-0.934h-0.202
				c-0.371,0-0.335-0.278-0.331-0.422c0.026-0.959-0.256-2.049-0.668-2.868c-0.917-1.822-2.364-2.981-3.255-3.651
				c-0.193-0.145-0.213-0.325,0-0.472c0.919-0.632,2.338-1.829,3.255-3.651c0.439-0.872,0.73-2.052,0.659-3.053
				c-0.006-0.08-0.011-0.237,0.199-0.237h0.343C15.578,2.024,15.998,1.604,15.998,1.09z M13.117,4.938
				c-0.854,1.695-2.223,2.908-3.415,3.638C9.631,8.62,9.494,8.729,9.494,9.032v0.362c0,0.321,0.146,0.392,0.222,0.439
				c1.191,0.731,2.551,1.941,3.401,3.629c0.393,0.78,0.597,1.723,0.577,2.474c-0.004,0.156,0.056,0.44-0.35,0.44H2.646
				c-0.358,0-0.343-0.179-0.342-0.276c0.006-0.683,0.242-1.629,0.681-2.662c0.763-1.794,2.364-2.913,3.43-3.58
				c0.047-0.03,0.139-0.083,0.139-0.367V8.949c0-0.293-0.141-0.407-0.215-0.454C5.275,7.823,3.73,6.714,2.985,4.963
				c-0.444-1.044-0.68-1.999-0.681-2.684c0-0.09,0.011-0.255,0.21-0.255h10.944c0.221,0,0.219,0.167,0.226,0.256
				C13.747,3.056,13.543,4.093,13.117,4.938z"/>
			<path d="M7.781,10.394l-3.642,4.558c-0.12,0.151-0.061,0.274,0.132,0.274h7.458c0.193,0,0.252-0.123,0.132-0.274
				l-3.642-4.558C8.098,10.244,7.901,10.244,7.781,10.394z"/>
			<path d="M8.218,8.265l3.642-4.558c0.12-0.151,0.061-0.274-0.132-0.274H4.27c-0.193,0-0.252,0.123-0.132,0.274
				l3.642,4.558C7.901,8.416,8.098,8.416,8.218,8.265z"/>
		</g>
	</g>
</g>
</svg>
