<?xml version="1.0" encoding="utf-8"?>
<!-- Generator: Adobe Illustrator 16.0.0, SVG Export Plug-In . SVG Version: 6.00 Build 0)  -->
<!DOCTYPE svg PUBLIC "-//W3C//DTD SVG 1.1//EN" "http://www.w3.org/Graphics/SVG/1.1/DTD/svg11.dtd">
<svg version="1.1" id="Layer_1" xmlns="http://www.w3.org/2000/svg" xmlns:xlink="http://www.w3.org/1999/xlink" x="0px" y="0px"
	 width="24px" height="24px" viewBox="0 0 24 24" enable-background="new 0 0 24 24" xml:space="preserve">
<g>
	<path fill-rule="evenodd" clip-rule="evenodd" fill="#00A7D2" d="M12,23.999c6.609,0,12-5.39,12-12C24,5.39,18.609,0,12,0
		C5.391,0,0,5.39,0,12C0,18.609,5.391,23.999,12,23.999z"/>
	<g>
		<path fill="#FFFFFF" d="M18.429,12.804v-1.608l-1.736-0.289c-0.121-0.522-0.327-1.009-0.604-1.452l1.025-1.433l-1.136-1.137
			L14.544,7.91c-0.442-0.275-0.929-0.482-1.45-0.603l-0.29-1.737h-1.607l-0.289,1.737c-0.521,0.121-1.01,0.328-1.451,0.603
			L8.021,6.886L6.886,8.022L7.91,9.455c-0.277,0.441-0.481,0.929-0.602,1.452l-1.737,0.289v1.608l1.737,0.29
			c0.12,0.521,0.325,1.009,0.602,1.451l-1.024,1.434l1.135,1.135l1.435-1.022c0.441,0.274,0.929,0.48,1.451,0.601l0.289,1.737h1.607
			l0.29-1.737c0.521-0.12,1.008-0.326,1.451-0.601l1.434,1.022l1.136-1.135l-1.023-1.434c0.274-0.442,0.48-0.931,0.602-1.451
			L18.429,12.804z M12,15.214c-1.776,0-3.214-1.438-3.214-3.214c0-1.775,1.438-3.214,3.214-3.214c1.775,0,3.214,1.439,3.214,3.214
			C15.214,13.775,13.775,15.214,12,15.214z"/>
	</g>
</g>
</svg>
