<?xml version="1.0" encoding="utf-8"?>
<!-- Generator: Adobe Illustrator 17.0.0, SVG Export Plug-In . SVG Version: 6.00 Build 0)  -->
<!DOCTYPE svg PUBLIC "-//W3C//DTD SVG 1.1//EN" "http://www.w3.org/Graphics/SVG/1.1/DTD/svg11.dtd">
<svg version="1.1" id="Layer_1" xmlns="http://www.w3.org/2000/svg" xmlns:xlink="http://www.w3.org/1999/xlink" x="0px" y="0px"
	 width="9.998px" height="9.65px" viewBox="0 0 9.998 9.65" enable-background="new 0 0 9.998 9.65" xml:space="preserve">
<g>
	<g id="_x39__5_">
		<g>
			<path fill="#666666" d="M9.652,8.961H4.829c-0.19,0-0.346,0.154-0.346,0.344c0,0.19,0.156,0.345,0.346,0.345h4.824
				c0.19,0,0.345-0.154,0.345-0.345C9.998,9.116,9.843,8.961,9.652,8.961z M5.409,3.342c0.135-0.135,0.135-0.354,0-0.49L3.017,0.098
				C2.945,0.027,2.849-0.004,2.755,0C2.661-0.004,2.565,0.027,2.494,0.098L0.101,2.851c-0.135,0.137-0.135,0.356,0,0.491
				c0.135,0.136,0.354,0.137,0.489,0l1.826-2.1V9.65h0.689V1.254L4.92,3.342C5.055,3.479,5.274,3.479,5.409,3.342z M5.517,1.379
				h4.135c0.19,0,0.345-0.163,0.345-0.354c0-0.191-0.155-0.346-0.345-0.346H5.517c-0.19,0-0.345,0.154-0.345,0.346
				C5.172,1.216,5.327,1.379,5.517,1.379z M9.652,6.89H4.829c-0.19,0-0.346,0.154-0.346,0.345c0,0.191,0.156,0.345,0.346,0.345
				h4.824c0.19,0,0.345-0.153,0.345-0.345C9.998,7.044,9.843,6.89,9.652,6.89z M9.652,4.82H4.829c-0.19,0-0.346,0.154-0.346,0.346
				c0,0.189,0.156,0.345,0.346,0.345h4.824c0.19,0,0.345-0.155,0.345-0.345C9.998,4.974,9.843,4.82,9.652,4.82z M9.652,2.75
				L6.896,2.758c-0.19,0-0.344,0.146-0.344,0.337c0,0.19,0.154,0.352,0.344,0.352L9.652,3.44c0.19,0,0.345-0.154,0.345-0.345
				C9.998,2.905,9.843,2.75,9.652,2.75z"/>
		</g>
	</g>
</g>
</svg>
