<?xml version="1.0" encoding="utf-8"?>
<!-- Generator: Adobe Illustrator 17.0.0, SVG Export Plug-In . SVG Version: 6.00 Build 0)  -->
<!DOCTYPE svg PUBLIC "-//W3C//DTD SVG 1.1//EN" "http://www.w3.org/Graphics/SVG/1.1/DTD/svg11.dtd">
<svg version="1.1" id="Layer_1" xmlns="http://www.w3.org/2000/svg" xmlns:xlink="http://www.w3.org/1999/xlink" x="0px" y="0px"
	 width="67.404px" height="67.404px" viewBox="0 0 67.404 67.404" enable-background="new 0 0 67.404 67.404" xml:space="preserve">
<g>
	<rect x="0" y="0" fill="#F5F5F5" width="67.404" height="67.404"/>
	<g>
		<g>
			<path fill="#FFFFFF" d="M33.702,11.834c2.78,0,7.441,1.086,7.441,8.365c0,5.901-3.478,11.074-7.441,11.074
				c-3.965,0-7.442-5.173-7.442-11.074C26.26,12.92,30.923,11.834,33.702,11.834 M33.702,39.165c3.852,0,7.632,0.604,10.643,1.696
				c3.016,1.1,5.216,2.652,6.558,4.64c0.073,0.105,0.111,0.223,0.111,0.35v9.115c0,0.333-0.275,0.604-0.611,0.604H33.702H16.993
				c-0.333,0-0.601-0.271-0.601-0.604v-9.11c-0.006-0.125,0.026-0.237,0.102-0.341c1.32-1.986,3.527-3.55,6.558-4.654
				C26.065,39.769,29.847,39.165,33.702,39.165 M33.702,9.404c-5.452,0-9.87,3.37-9.87,10.795c0,7.428,4.551,13.503,9.87,13.503
				c5.316,0,9.87-6.074,9.87-13.503C43.572,12.774,39.154,9.404,33.702,9.404L33.702,9.404z M33.702,36.735
				c-3.65,0-7.842,0.523-11.478,1.845c-3.207,1.165-6.008,2.964-7.755,5.585c-0.352,0.53-0.516,1.12-0.508,1.708v9.093
				c0,1.671,1.354,3.034,3.032,3.034h16.709h16.701c1.681,0,3.041-1.363,3.041-3.034v-9.115c0-0.644-0.202-1.242-0.546-1.735
				c-1.748-2.599-4.537-4.379-7.724-5.537C41.54,37.258,37.351,36.735,33.702,36.735L33.702,36.735z"/>
		</g>
	</g>
</g>
</svg>
